<svg xmlns="http://www.w3.org/2000/svg" width="100" height="112" viewBox="0 0 100 112">
  <metadata><?xpacket begin="﻿" id="W5M0MpCehiHzreSzNTczkc9d"?>
<x:xmpmeta xmlns:x="adobe:ns:meta/" x:xmptk="Adobe XMP Core 5.6-c140 79.160451, 2017/05/06-01:08:21        ">
   <rdf:RDF xmlns:rdf="http://www.w3.org/1999/02/22-rdf-syntax-ns#">
      <rdf:Description rdf:about=""/>
   </rdf:RDF>
</x:xmpmeta>
                                                                                                    
                                                                                                    
                                                                                                    
                                                                                                    
                                                                                                    
                                                                                                    
                                                                                                    
                                                                                                    
                                                                                                    
                                                                                                    
                                                                                                    
                                                                                                    
                                                                                                    
                                                                                                    
                                                                                                    
                                                                                                    
                                                                                                    
                                                                                                    
                                                                                                    
                                                                                                    
                           
<?xpacket end="w"?></metadata>
<defs>
    <style>
      .cls-1 {
        fill: #999;
        fill-rule: evenodd;
      }
    </style>
  </defs>
  <path id="icon" class="cls-1" d="M367.444,6522h-18.8a23.666,23.666,0,0,0-23.633,23.7v64.59A23.679,23.679,0,0,0,348.654,6634h18.79a0.565,0.565,0,0,0,.558-0.56V6522.57A0.567,0.567,0,0,0,367.444,6522Zm-20.938,17.81a9.905,9.905,0,1,1-9.887,9.9A9.89,9.89,0,0,1,346.506,6539.81Zm-9.481,50.02a4.48,4.48,0,1,1,4.468-4.48A4.478,4.478,0,0,1,337.025,6589.83Zm9.477,9.51a4.48,4.48,0,1,1,4.472-4.49A4.483,4.483,0,0,1,346.5,6599.34Zm0-19.01a4.48,4.48,0,1,1,4.472-4.49A4.477,4.477,0,0,1,346.5,6580.33Zm9.481,9.49a4.47,4.47,0,1,1,4.464-4.47A4.468,4.468,0,0,1,355.983,6589.82ZM401.922,6522H383.561a0.561,0.561,0,0,0-.546.57v110.87a0.559,0.559,0,0,0,.546.56h18.353c12.754,0,23.092-10.62,23.092-23.71V6545.7C425.006,6532.61,414.671,6522,401.922,6522Zm2.092,16.53a4.482,4.482,0,1,1-4.36,4.48A4.421,4.421,0,0,1,404.014,6538.53Zm0,19.01a4.477,4.477,0,1,1-4.36,4.48A4.421,4.421,0,0,1,404.014,6557.54Zm-13.621-5.02a4.365,4.365,0,1,1,4.364,4.47A4.43,4.43,0,0,1,390.393,6552.52Zm13.621,45.54a9.913,9.913,0,1,1,9.653-9.91A9.787,9.787,0,0,1,404.014,6598.06Zm9.262-41.07a4.477,4.477,0,1,1,4.36-4.47A4.424,4.424,0,0,1,413.276,6556.99Z" transform="translate(-325 -6522)"/>
</svg>
